<?xml version="1.0" standalone="no"?><!DOCTYPE svg PUBLIC "-//W3C//DTD SVG 1.1//EN" "http://www.w3.org/Graphics/SVG/1.1/DTD/svg11.dtd"><svg class="icon" width="200px" height="200.00px" viewBox="0 0 1024 1024" version="1.1" xmlns="http://www.w3.org/2000/svg"><path d="M546.60702 857.443265c196.649796-31.785796 330.814694-220.306286 299.676735-421.031183-31.158857-200.745796-215.813224-337.71102-412.46302-305.904327C237.191837 162.293551 103.026939 350.793143 134.164898 551.538939c31.137959 200.745796 215.813224 337.71102 412.442122 305.904326z" fill="#1F73C9" /><path d="M770.925714 235.979755c-3.698939-19.038041 8.463673-37.198367 27.146449-40.521143 112.117551-19.978449 171.843918-4.137796 202.501225 53.498776 27.689796 52.098612 2.236082 117.801796-60.813061 190.046041-36.989388 42.422857-87.269878 87.102694-147.100735 130.821224-54.627265 39.936-116.401633 78.471837-182.397388 113.580408a1665.546449 1665.546449 0 0 1-97.948735 48.107102l-24.032653 10.574368c-11.974531 5.140898-23.844571 10.051918-35.610122 14.733061l-23.384816 9.069714-23.050449 8.442776c-183.066122 64.950857-332.193959 69.046857-374.386939-10.281796-26.247837-49.36098-14.168816-100.540082 41.607837-168.228572 12.099918-14.649469 33.833796-16.342204 48.545959-3.761632 14.733061 12.601469 16.864653 34.690612 4.764734 49.360979-39.706122 48.169796-42.966204 74.250449-34.377142 90.446368 11.410286 21.441306 53.916735 27.898776 115.732898 19.978449l15.840653-2.277878a681.566041 681.566041 0 0 0 42.882612-8.29649l18.348408-4.367673 18.975347-4.952817c9.633959-2.612245 19.497796-5.433469 29.549714-8.505469l20.354612-6.415673 20.814368-7.000817 21.274122-7.565061 21.671184-8.150204 10.971428-4.30498 22.172735-9.00702c3.740735-1.546449 7.460571-3.134694 11.222204-4.722939l22.611592-9.884735a1501.936327 1501.936327 0 0 0 92.410776-45.139591c63.237224-33.645714 122.315755-70.488816 174.330775-108.523102 56.048327-40.96 102.671673-82.400653 136.150204-120.790205 45.891918-52.600163 61.64898-93.246694 52.32849-110.759183-10.866939-20.48-43.676735-31.911184-128.585143-16.760163-18.703673 3.343673-36.843102-9.404082-40.542041-28.442123z" fill="#60AFFF" /><path d="M698.068598 534.439189a111.950367 109.77698 81 1 0 216.850886-34.345806 111.950367 109.77698 81 1 0-216.850886 34.345806Z" fill="#6FD7F2" /></svg>