<?xml version="1.0" standalone="no"?><!DOCTYPE svg PUBLIC "-//W3C//DTD SVG 1.1//EN" "http://www.w3.org/Graphics/SVG/1.1/DTD/svg11.dtd"><svg class="icon" width="200px" height="200.00px" viewBox="0 0 1024 1024" version="1.1" xmlns="http://www.w3.org/2000/svg"><path d="M261.352727 76.427636C338.920727 31.185455 423.773091 8.378182 515.723636 8.378182c91.834182 0 176.570182 22.667636 254.347637 68.026182a506.205091 506.205091 0 0 1 184.296727 184.296727c45.218909 77.498182 68.026182 162.397091 68.026182 254.347636 0 91.950545-22.690909 176.826182-68.026182 254.347637-45.358545 77.498182-106.775273 139.077818-184.32 184.296727-77.498182 45.218909-162.373818 68.026182-254.324364 68.026182-91.973818 0-176.826182-22.667636-254.370909-68.026182a505.6 505.6 0 0 1-184.273454-184.436364C31.720727 691.781818 9.053091 606.906182 9.053091 514.955636c0-91.834182 22.667636-176.593455 68.026182-254.370909C122.414545 183.109818 183.854545 121.669818 261.352727 76.450909z m435.106909 275.758546c-0.884364 0.372364-2.909091 2.513455-6.190545 6.190545-3.304727 3.677091-6.213818 5.818182-8.866909 6.213818 0.884364 0 1.885091-1.140364 2.909091-3.304727 1.140364-2.257455 2.280727-4.538182 3.281454-7.214545 1.163636-2.536727 1.908364-4.189091 2.420364-4.561455 2.536727-3.025455 7.586909-6.446545 14.568727-9.867636 6.074182-2.56 17.733818-5.329455 34.210909-7.866182 14.941091-3.421091 26.205091-1.140364 33.559273 7.214545-0.884364-0.884364 1.256727-3.653818 6.190545-8.610909 4.957091-4.794182 8.122182-7.586909 9.518546-7.842909 1.396364-0.884364 4.538182-1.908364 9.867636-2.909091 5.329455-1.024 8.610909-2.653091 9.890909-4.933818l1.396364-14.568727c-5.352727 0.372364-9.122909-1.163636-11.543273-4.561455-2.397091-3.421091-3.793455-8.122182-4.305454-13.824 0 0.907636-1.396364 2.56-4.049455 5.352728 0-3.072-1.024-4.840727-2.909091-5.352728a15.755636 15.755636 0 0 0-7.726545 0.768c-3.025455 0.884364-4.933818 1.163636-5.957818 0.768-4.421818-1.396364-7.726545-2.909091-9.890909-4.933818-2.280727-2.048-4.049455-5.585455-5.306182-10.914909-1.28-5.306182-2.280727-8.610909-2.536728-9.867636-0.884364-2.280727-2.909091-4.561455-6.213818-7.214546-3.281455-2.56-5.445818-4.817455-6.190545-6.725818l-1.652364-3.537454c-0.768-1.512727-1.396364-2.909091-2.024727-4.305455a14.894545 14.894545 0 0 0-2.56-3.560727 5.399273 5.399273 0 0 0-3.514182-1.629091c-1.396364 0-2.932364 1.140364-4.561454 3.281454-1.908364 2.280727-3.421091 4.421818-4.957091 6.725819-1.512727 2.280727-2.536727 3.281455-2.909091 3.281454-1.396364-0.884364-2.536727-1.256727-4.049455-1.000727-1.396364 0.232727-2.397091 0.372364-2.909091 0.744727a9.309091 9.309091 0 0 0-2.909091 2.024727c-1.396364 1.163636-2.420364 2.024727-3.304727 2.420364a16.616727 16.616727 0 0 1-5.585454 2.024727 27.089455 27.089455 0 0 0-5.562182 1.396364c6.725818-2.280727 6.469818-4.561455-0.768-7.214546-4.421818-1.908364-7.842909-2.420364-10.496-2.048 4.049455-1.885091 5.585455-4.421818 4.933818-7.842909a16.546909 16.546909 0 0 0-5.585455-9.239272h3.304728c-0.372364-1.908364-2.397091-3.560727-5.585455-5.585455a81.594182 81.594182 0 0 0-11.52-5.585454c-4.421818-1.885091-7.214545-3.025455-8.610909-4.049455-3.421091-2.280727-11.008-4.305455-22.551273-6.190545-11.403636-2.024727-18.618182-2.164364-21.783272-0.256-2.280727 2.536727-3.165091 4.933818-2.909091 6.981818 0.232727 2.001455 1.140364 4.910545 2.536727 9.239272 1.512727 4.189091 2.397091 6.958545 2.397091 8.09891 0.395636 2.536727-0.884364 5.585455-3.537455 8.610909-2.909091 3.025455-4.305455 5.701818-4.305454 7.842909 0 3.048727 3.025455 6.586182 9.239272 10.263272 6.074182 3.677091 8.238545 8.378182 6.725819 14.056728-1.396364 3.421091-4.817455 7.098182-10.519273 10.519272-5.701818 3.421091-9.239273 6.074182-10.519273 7.866182-2.280727 3.421091-2.536727 7.726545-1.000727 12.288 1.512727 4.561455 3.793455 8.098909 6.958545 10.891637 0.884364 0.884364 1.256727 1.885091 1.000728 2.513454a5.469091 5.469091 0 0 1-2.397091 2.932364 21.271273 21.271273 0 0 1-3.537455 2.536727c-1.163636 0.744727-2.56 1.396364-4.305454 2.397091l-2.024728 1.396364c-4.817455 2.280727-9.262545 0.884364-13.428363-4.049455a41.402182 41.402182 0 0 1-8.866909-17.221818c-3.048727-11.031273-6.725818-17.757091-10.519273-19.781818-10.146909-3.421091-16.593455-3.281455-19.130182 0.768-2.280727-5.701818-11.264-11.403636-27.112727-17.221818-11.008-4.049455-23.668364-4.817455-38.376727-2.536728 2.536727-0.372364 2.536727-3.677091 0-9.890909-3.025455-6.702545-7.214545-9.239273-12.544-7.842909 1.396364-2.536727 2.280727-6.586182 2.56-11.52 0.372364-4.957091 0.744727-7.982545 0.744727-8.866909 1.396364-5.701818 4.049455-10.891636 7.842909-15.080727 0.395636-0.372364 2.024727-2.397091 4.561454-5.585455 2.56-3.281455 4.701091-6.190545 6.213819-8.843636 1.512727-2.56 1.629091-4.072727 0.232727-4.072727 15.476364 1.908364 26.368-0.744727 33.070545-7.214546 2.280727-2.280727 4.701091-5.957818 7.726546-11.264 2.932364-5.329455 5.213091-9.006545 6.981818-11.287273 4.049455-2.513455 7.074909-3.793455 9.239273-3.537454 2.280727 0.232727 5.445818 1.396364 9.495272 3.537454 4.189091 2.280727 7.354182 3.304727 9.495273 3.304728 6.097455 0.372364 9.518545-2.024727 10.263273-7.214546a14.010182 14.010182 0 0 0-4.933818-13.172363c5.329455 0.372364 5.957818-3.304727 2.024727-11.287273-1.908364-3.025455-3.421091-4.933818-5.306182-5.957818-5.352727-1.885091-11.287273-0.744727-17.873454 3.304727-3.421091 1.908364-3.025455 3.421091 1.396363 5.306182-0.372364-0.372364-2.536727 2.048-6.213818 6.981818a56.785455 56.785455 0 0 1-10.891636 11.52c-3.421091 2.536727-7.098182 1.512727-10.519273-3.281455-0.372364-0.395636-1.629091-3.421091-3.537455-8.866909-2.024727-5.585455-4.049455-8.378182-6.213818-8.866909-3.421091 0-7.074909 3.281455-10.496 9.867637 1.396364-3.421091-1.163636-6.842182-7.214545-9.867637a49.338182 49.338182 0 0 0-15.848727-5.329454c8.238545-5.329455 6.725818-11.264-5.329455-17.850182-3.025455-1.908364-7.726545-2.932364-13.405091-3.304727-5.957818-0.372364-10.263273 0.372364-12.939636 2.536727-2.280727 3.025455-3.421091 5.585455-3.537455 7.726545-0.232727 2.024727 0.884364 3.677091 3.281455 5.329455 2.420364 1.512727 4.701091 2.653091 6.981818 3.537454 2.280727 0.884364 4.677818 1.908364 7.726545 2.536728 2.909091 0.884364 4.677818 1.512727 5.585455 2.024727 6.050909 4.421818 7.842909 7.586909 5.306182 9.239273-0.884364 0.395636-2.653091 1.28-5.585455 2.420363-2.909091 1.140364-5.445818 2.141091-7.726545 2.909091a9.588364 9.588364 0 0 0-4.049455 2.536727c-1.396364 1.885091-1.396364 4.794182 0 9.239273 1.396364 4.421818 0.884364 7.610182-1.396363 9.239273-2.280727-2.280727-4.189091-6.074182-5.934546-11.52-1.908364-5.585455-3.304727-9.122909-4.561454-10.891636 3.025455 4.049455-2.420364 5.329455-16.593455 4.049454l-6.725818-0.768a61.905455 61.905455 0 0 0-10.519273 1.396364 51.432727 51.432727 0 0 1-13.405091 0.768 12.218182 12.218182 0 0 1-8.866909-5.329455c-1.908364-3.421091-1.908364-7.842909 0-13.172363 0.372364-1.885091 1.396364-2.280727 2.513455-1.396364a94.580364 94.580364 0 0 1-7.214546-6.190546 47.685818 47.685818 0 0 0-6.702545-5.585454c-20.270545 6.725818-40.913455 15.709091-62.068364 27.112727 2.536727 0.372364 5.306182 0.232727 7.842909-0.768 2.280727-0.884364 4.933818-2.397091 8.610909-4.305454 3.421091-2.024727 5.701818-3.165091 6.725818-3.537455 14.941091-6.074182 24.064-7.726545 27.741091-4.561454l3.281455-3.304728c6.074182 7.098182 10.519273 12.567273 13.172364 16.593455-3.025455-1.885091-9.751273-2.024727-19.758546-0.744727-8.727273 2.536727-13.544727 5.306182-14.568727 7.842909 3.025455 5.329455 4.189091 9.262545 3.304727 12.032a77.498182 77.498182 0 0 1-7.726545-6.702546 53.853091 53.853091 0 0 0-9.495273-7.214545 23.435636 23.435636 0 0 0-9.890909-3.304728c-7.098182 0-12.032 0.256-14.568727 0.768-64.349091 35.211636-115.898182 83.968-154.903273 146.548364 3.025455 3.025455 5.701818 4.817455 7.842909 5.329455 1.908364 0.372364 2.909091 2.397091 3.304727 5.934545 0.372364 3.421091 1.000727 5.957818 1.629091 7.214546 0.768 1.396364 3.188364 0.768 7.726546-2.001455 4.072727 3.397818 4.561455 7.726545 2.048 12.520727 0.372364-0.372364 10.123636 5.585455 28.997818 17.873455 8.238545 7.586909 12.916364 12.148364 13.800727 13.800727 1.396364 4.817455-0.884364 8.750545-6.702545 12.032-0.395636-0.884364-2.420364-2.909091-5.957819-5.957818-3.421091-3.025455-5.585455-4.049455-5.957818-2.536727-1.396364 2.280727-1.256727 6.213818 0.256 12.288 1.512727 5.957818 3.793455 8.750545 6.981818 8.122181-3.048727 0-5.213091 3.421091-6.213818 10.496-1.163636 7.098182-1.652364 14.824727-1.652363 23.435637 0 8.610909-0.256 13.684364-0.768 15.592727l1.396363 0.744727c-1.396364 5.352727-0.116364 12.939636 3.537455 22.807273 3.677091 9.890909 8.378182 14.056727 14.08 12.916364-5.701818 1.396364-1.396364 10.891636 13.172363 28.392727 2.536727 3.397818 4.421818 5.562182 5.306182 5.934545l7.866182 4.957091c4.049455 2.397091 7.214545 4.538182 9.867636 6.702546 2.56 2.164364 4.817455 4.305455 6.725819 6.981818 1.885091 2.257455 4.049455 7.214545 6.702545 14.801455 2.536727 7.726545 5.701818 12.916364 9.239273 15.592727-0.884364 2.513455 1.28 7.074909 6.213818 13.172363 4.933818 6.050909 7.354182 11.264 6.981818 15.057455a3.072 3.072 0 0 0-1.652364 0.768c-0.768 0.372364-1.28 0.768-1.652363 0.768 1.396364 3.025455 4.677818 6.050909 10.24 9.239273 5.585455 3.025455 8.890182 5.957818 10.286545 8.610909 0.372364 1.396364 0.884364 3.421091 1.396364 6.725818 0.372364 3.025455 1.140364 5.562182 2.024727 7.214545 0.884364 1.885091 2.536727 2.280727 5.306182 1.396364 0.884364-8.750545-4.421818-22.574545-15.825455-40.913454a437.480727 437.480727 0 0 1-11.264-19.130182 33.745455 33.745455 0 0 1-3.560727-10.263273 69.445818 69.445818 0 0 0-2.909091-9.495273c0.884364 0 2.280727 0.232727 4.049455 1.000728 1.908364 0.768 3.560727 1.396364 5.585454 2.420363 2.024727 0.884364 3.537455 1.885091 4.933819 2.536727 1.396364 0.884364 1.908364 1.512727 1.396363 2.024728-1.396364 3.025455-0.884364 6.958545 1.396364 11.52s4.794182 8.727273 7.842909 12.288c3.025455 3.537455 6.842182 7.726545 11.264 12.544 4.445091 4.817455 7.098182 7.726545 7.866182 8.610909 2.536727 2.536727 5.701818 6.981818 9.239272 12.916363 3.421091 5.957818 3.421091 8.843636 0 8.843637 4.049455 0 8.238545 2.420364 13.172364 6.981818 4.817455 4.561455 8.610909 8.866909 11.287273 12.916364 2.280727 3.421091 4.049455 9.262545 5.306182 17.221818 1.396364 7.866182 2.420364 13.195636 3.304727 15.848727a20.014545 20.014545 0 0 0 5.585454 8.866909c2.885818 2.909091 5.562182 4.933818 8.09891 6.213818 2.513455 1.396364 6.050909 3.025455 10.496 5.306182 4.421818 2.280727 7.214545 3.677091 8.610909 4.561455 2.280727 0.884364 6.213818 3.165091 12.288 6.981818 5.957818 3.653818 10.658909 6.190545 14.08 7.726545 4.421818 1.885091 7.842909 2.513455 10.496 2.513455 2.56 0 5.818182-0.488727 9.495272-1.629091 3.677091-1.163636 6.725818-1.908364 8.866909-2.420364 6.725818-0.884364 12.939636 2.420364 19.130182 9.890909 6.097455 7.586909 10.891636 12.148364 13.824 13.800728 15.825455 8.238545 27.973818 10.891636 36.352 7.214545-0.884364 0.395636-0.884364 2.164364 0.232728 4.957091 1.163636 2.909091 2.932364 6.190545 5.352727 10.24 2.397091 4.072727 4.421818 7.214545 5.934545 9.518546 1.512727 2.397091 2.653091 4.305455 3.537455 5.585454 2.280727 2.513455 6.097455 5.934545 12.032 9.867636 5.701818 4.049455 9.774545 7.214545 12.032 9.867637 2.56-1.908364 4.189091-3.677091 4.561454-5.957818-1.396364 3.421091 0.256 7.866182 4.561455 13.172363 4.421818 5.329455 8.238545 7.610182 12.032 6.725818 6.097455-1.396364 9.262545-8.238545 9.262545-21.178181-13.568 6.749091-24.32 2.56-32.302545-12.008728a11.403636 11.403636 0 0 0-1.652364-3.560727 26.484364 26.484364 0 0 1-2.536727-5.562182 28.206545 28.206545 0 0 1-1.629091-5.585454 10.752 10.752 0 0 1 0-4.933818c0.372364-1.396364 1.512727-2.024727 3.258182-2.024728 4.072727 0 6.097455-0.768 6.749091-2.397091 0.372364-1.536 0-4.305455-1.396364-8.122181a57.134545 57.134545 0 0 1-2.56-8.61091c-0.372364-3.421091-2.909091-7.842909-7.214545-13.172363a134.516364 134.516364 0 0 1-7.842909-9.867637c-2.280727 4.049455-5.701818 5.701818-10.519273 5.306182a12.893091 12.893091 0 0 1-10.519273-5.934545c0 0.372364-0.232727 1.629091-1.000727 3.537454a13.079273 13.079273 0 0 0-1.024 4.305455c-5.701818 0-8.983273-0.232727-9.867636-0.768 0.372364-1.396364 1.000727-5.189818 1.62909-11.52 0.768-6.469818 1.396364-11.403636 2.420364-14.824727 0.372364-1.885091 1.629091-4.421818 3.537455-7.842909 2.048-3.421091 3.560727-6.725818 4.957091-9.495273 1.396364-2.932364 2.280727-5.585455 2.536727-8.122182a5.864727 5.864727 0 0 0-2.932364-6.190545c-2.513455-1.536-6.190545-2.164364-11.52-1.652364-8.238545 0.372364-13.940364 4.817455-17.221818 13.172364-0.372364 1.396364-1.163636 3.537455-2.024727 6.981818-0.884364 3.258182-2.024727 5.818182-3.304728 7.703272a14.894545 14.894545 0 0 1-5.957818 4.561455c-3.025455 1.396364-8.215273 1.908364-15.825454 1.396364-7.586909-0.512-12.8-1.512727-15.825455-3.304728-5.701818-3.397818-10.635636-9.867636-14.824727-19.106909-4.189091-9.262545-6.213818-17.361455-6.213818-24.32 0-4.421818 0.512-10.263273 1.652363-17.477818 1.163636-7.214545 1.908364-12.8 2.024728-16.593454 0.256-3.677091-1.000727-9.122909-3.537455-16.104728 1.396364-0.884364 3.281455-2.909091 5.957818-6.190545 2.513455-3.165091 4.794182-5.585455 6.702546-6.981818a19.688727 19.688727 0 0 1 2.909091-1.000728 5.632 5.632 0 0 1 2.909091 0c0.884364 0.232727 1.908364-0.139636 2.56-1.024a9.332364 9.332364 0 0 0 2.001454-4.049454c-0.372364-0.372364-1.396364-1.140364-2.536727-2.024727-1.396364-1.396364-2.257455-2.024727-2.513455-2.024728 3.025455 1.396364 9.239273 1.000727 18.850909-1.024 9.378909-2.024727 15.592727-1.629091 18.129455 1.024 6.702545 4.817455 11.403636 4.421818 14.568727-1.396363a44.683636 44.683636 0 0 0-1.652363-6.213819c-1.140364-3.677091-1.256727-6.702545-0.232728-8.843636 2.257455 12.008727 8.610909 13.800727 19.106909 5.934546 1.396364 1.396364 4.677818 2.420364 10.24 3.304727 5.585455 0.884364 9.262545 2.024727 11.543273 3.281454 1.396364 0.884364 2.909091 2.164364 4.561455 3.560728 1.908364 1.512727 2.909091 2.513455 3.537454 2.909091 0.768 0.372364 1.908364 0.232727 3.304727-0.256a22.784 22.784 0 0 0 5.585455-4.305455c4.421818 6.074182 7.074909 11.403636 7.842909 15.825455 4.817455 17.733818 8.983273 27.368727 12.544 28.997818 3.025455 1.396364 5.585455 1.908364 7.214546 1.396363 1.908364-0.372364 2.653091-2.513455 2.90909-6.190545 0.256-3.677091 0.256-6.842182 0-9.262546-0.232727-2.397091-0.512-5.189818-1.000727-8.098909l-0.768-5.329454v-12.032l-0.768-5.306182c-6.702545-1.396364-10.635636-4.049455-12.288-7.866182a14.149818 14.149818 0 0 1 1.024-12.288c2.280727-4.189091 5.585455-8.098909 9.867637-12.288 0.395636-0.372364 2.280727-1.256727 5.329454-2.397091a121.483636 121.483636 0 0 0 10.24-4.305454c3.700364-1.908364 6.609455-3.421091 8.145455-5.329455 9.239273-8.215273 12.520727-16.058182 9.867636-23.04 3.025455 0 5.585455-2.024727 7.214545-5.957818a12.544 12.544 0 0 1-3.304727-2.024727 55.458909 55.458909 0 0 0-4.933818-3.304728 10.146909 10.146909 0 0 0-2.909091-1.396363c4.049455-2.257455 4.421818-5.678545 1.396364-10.496 2.280727-1.396364 3.793455-3.677091 4.933818-7.214546 1.163636-3.421091 2.653091-5.701818 4.933818-6.725818 4.072727 5.329455 8.610909 5.701818 13.824 1.396364 3.421091-3.421091 3.677091-7.098182 0.744727-10.519273 2.280727-3.025455 6.725818-5.445818 13.428364-6.981818 6.842182-1.489455 10.891636-3.537455 12.288-6.190546 3.025455 0.884364 4.817455 0.395636 5.329455-1.396363a38.865455 38.865455 0 0 0 0.744727-7.842909 13.498182 13.498182 0 0 1 2.048-7.866182c1.885091-2.280727 4.933818-4.189091 9.867636-5.934546 4.817455-1.908364 7.726545-2.932364 8.610909-3.304727l11.287273-7.214545c1.396364-1.908364 1.396364-2.536727 0-2.536728 7.842909 0.884364 14.661818-1.512727 20.386909-7.214545 4.421818-4.817455 3.025455-9.262545-4.049454-13.172364 1.396364-2.56 0.744727-4.701091-2.024728-6.213818a34.420364 34.420364 0 0 0-9.890909-3.537454c1.396364-0.395636 3.793455-0.512 7.726546-0.256 3.793455 0.232727 6.074182-0.139636 6.981818-1.024 6.702545-4.421818 4.933818-7.842909-4.561455-10.519273-9.006545-5.050182-18.385455-2.397091-29.789091 5.213091z m-107.52 578.466909c90.554182-15.825455 167.819636-57.483636 231.540364-124.741818-1.396364-1.396364-4.049455-2.420364-8.098909-2.932364-4.189091-0.744727-6.981818-1.396364-8.122182-2.397091-7.842909-3.025455-13.172364-4.817455-15.825454-5.329454a13.591273 13.591273 0 0 0-1.629091-8.610909 18.850909 18.850909 0 0 0-5.352728-5.957819c-2.024727-1.396364-4.654545-3.025455-8.098909-5.306181-3.421091-2.280727-5.957818-3.677091-7.214545-4.561455a66.955636 66.955636 0 0 0-4.561455-4.049455 72.494545 72.494545 0 0 0-4.561454-3.560727 31.348364 31.348364 0 0 0-4.933818-2.909091c-2.420364-1.396364-4.305455-1.908364-5.585455-1.396363-1.396364 0.372364-3.421091 0.768-6.702545 0.768l-2.024728 0.744727a13.125818 13.125818 0 0 0-3.560727 1.652364c-1.140364 0.768-2.397091 1.396364-3.537455 2.024727-1.256727 0.512-2.280727 1.396364-2.536727 2.024727-0.372364 0.768-0.372364 1.28 0 1.652364-9.239273-7.586909-17.221818-12.404364-23.691636-14.568728a18.082909 18.082909 0 0 1-7.214546-3.537454 49.524364 49.524364 0 0 0-6.981818-4.561455 10.007273 10.007273 0 0 0-6.702545-1.024c-2.397091 0.395636-4.933818 2.024727-7.726546 4.561455-2.280727 2.280727-3.421091 5.585455-4.049454 9.890909-0.372364 4.421818-0.884364 7.214545-1.396364 8.610909-3.025455-2.280727-3.025455-6.074182 0-11.52 3.025455-5.585455 3.421091-9.518545 1.396364-12.288-1.396364-2.56-3.537455-3.560727-6.981818-2.909091-3.258182 0.744727-5.934545 1.629091-7.84291 2.909091a115.618909 115.618909 0 0 0-7.726545 5.585455c-3.025455 2.397091-4.933818 3.770182-5.934545 4.282181-0.907636 0.395636-2.676364 1.652364-5.585455 3.560728-2.909091 2.024727-4.677818 3.537455-5.585455 4.933818-1.396364 1.908364-2.513455 4.421818-4.049454 7.842909-1.512727 3.421091-2.397091 5.957818-3.281455 7.214545-0.884364-1.885091-3.421091-3.141818-7.726545-4.282181-4.189091-1.163636-6.213818-2.420364-6.213818-3.560728 0.884364 4.421818 1.908364 12.171636 2.56 23.04 0.861091 11.031273 2.001455 19.386182 3.258182 25.088 3.048727 13.568 0.395636 24.064-7.84291 31.674182-12.032 11.031273-18.245818 19.781818-19.130181 26.344727-1.885091 9.774545 0.884364 15.453091 7.866181 17.221819 0 3.048727-1.908364 7.726545-5.329454 13.428363-3.421091 5.957818-4.933818 10.635636-4.561455 14.056728-0.116364 2.932364 0.395636 6.353455 1.28 10.891636z" fill="#24B8E6" /></svg>