<?xml version="1.0" standalone="no"?><!DOCTYPE svg PUBLIC "-//W3C//DTD SVG 1.1//EN" "http://www.w3.org/Graphics/SVG/1.1/DTD/svg11.dtd"><svg class="icon" width="200px" height="200.00px" viewBox="0 0 1024 1024" version="1.1" xmlns="http://www.w3.org/2000/svg"><path d="M336.07224889 234.54226964a310.68918518 310.68918518 0 0 0-91.84749037 98.44963555 116.50844445 116.50844445 0 1 1 91.84749037-98.44963555z" fill="#FD7504" /><path d="M114.5120237 266.77627259a116.50844445 116.50844445 0 0 1 154.17950815-154.17950814 116.50844445 116.50844445 0 0 1-154.17950815 154.17950814z" fill="#FD8F07" /><path d="M822.68918518 490.66666667a310.68918518 310.68918518 0 0 1-472.05338073 265.44507259c15.92282075-5.24288 32.4281837-11.06830222 49.1277274-17.67044741A310.68918518 310.68918518 0 0 0 741.90999703 548.92088889c88.74059852-65.82727111 80.77918815-72.81777778 80.77918815-58.25422222z" fill="#FDA736" /><path d="M741.90999703 548.92088889a310.68918518 310.68918518 0 0 1-342.14646518 189.7145837A1510.14362075 1510.14362075 0 0 0 741.90999703 548.92088889z" fill="#FED370" /><path d="M822.68918518 483.87034075a1471.89001482 1471.89001482 0 0 1-471.8592 271.85303703c-322.34002963 109.32375703-407.77955555-29.70965333-149.51917036-258.26038519a308.3590163 308.3590163 0 0 0 14.95191703 89.12896c-176.31611259 174.76266667 46.40919703 160.00493037 344.0882726-11.84502517 310.68918518-179.42300445 413.60497778-358.06928592 181.94735407-291.27111112a300.39760592 300.39760592 0 0 0-69.32252444-58.25422222c322.72839111-108.74121482 407.9737363 30.09801482 149.7133511 258.64874667z" fill="#898EC9" /><path d="M764.43496297 433.96589037a311.85426963 311.85426963 0 0 0-62.33201779-188.74368 310.68918518 310.68918518 0 0 1 105.24596149 149.51917038c-12.62174815 12.62174815-26.99112297 25.82603852-42.9139437 39.22450962z" fill="#FDA736" /><path d="M764.43496297 432.41244445c0 7.76722963-221.75440592 185.63678815-482.92750222 266.02761481C39.75243852 429.88809482 374.7142163 41.52661334 673.17001482 225.22159408c26.99112297 16.50536297 26.99112297 19.41807408 28.93293036 19.41807407A310.68918518 310.68918518 0 0 1 764.43496297 432.41244445z" fill="#FED370" /><path d="M822.68918518 888.73718519a67.96325925 67.96325925 0 1 1-67.96325926-67.96325927 67.96325925 67.96325925 0 0 1 67.96325926 67.96325927z" fill="#6163AA" /><path d="M691.42300445 913.20395852a67.96325925 67.96325925 0 0 1 87.7696948-87.76969482 67.96325925 67.96325925 0 0 1-87.7696948 87.76969482z" fill="#898EC9" /><path d="M203.6409837 730.67406222C130.04648297 730.67406222 143.05659259 684.84740742 168.10590815 684.84740742c12.62174815 0 13.59265185 13.98101333 71.84687407 3.68943407 155.34459259-28.73874963 429.52779852-182.91825778 553.60929186-307.19393185 54.17642667-53.3997037 58.25422222-79.03156148 54.75896889-84.46862222-8.93231408-15.53445925-72.23523555-2.33016889-92.81839408 3.10689184-7.37886815 1.55344592-18.25298963 6.60214518-27.57366519-3.88361481-49.12772741-55.34151111-76.70139259-49.12772741-73.98286222-72.62359703a19.41807408 19.41807408 0 0 1 13.01010963-16.31118223c378.26408297-127.77092741 456.13056 84.8569837 84.85698371 358.65182815a19.41807408 19.41807408 0 0 1-22.91332741-31.06891852c286.61077333-211.85118815 318.8447763-398.65306075-12.23338666-302.53359407a330.10725925 330.10725925 0 0 1 32.23400295 29.32129184c43.10812445-10.87412148 111.0713837-22.33078518 133.20798815 15.92282075C949.68338963 393.5762963 399.37517037 730.47988149 203.6409837 730.67406222z" fill="#35214C" /><path d="M160.92122075 812.61833482c-174.76266667 0-181.36481185-144.85883259 27.76784592-330.10725926a19.41807408 19.41807408 0 0 1 20.58315851-3.30107259c21.55406222 9.5148563 2.52434963 29.70965333 25.63185779 100.97398518 6.01960297 19.41807408-12.03920592 21.35988148-40.77795556 60.9727526A19.41807408 19.41807408 0 0 1 162.47466667 618.63177482c43.30230518-59.61348741 32.62236445-12.03920592 22.71914666-80.00246518-328.35963259 315.5437037 88.74059852 299.42670222 480.98569482 38.83614814a19.41807408 19.41807408 0 0 1 21.35988148 32.23400297C547.14671408 704.26548149 322.09123555 812.61833482 160.92122075 812.61833482z" fill="#35214C" /><path d="M178.20330667 687.1775763c13.78683259 8.15559111 46.2150163 3.68943408 61.74947555 0.9709037s-1.74762667 0-30.68055704-65.63309036a230.88090075 230.88090075 0 0 0-15.14609777 19.41807406 19.41807408 19.41807408 0 0 1-31.65146074-23.30168888 403.89594075 403.89594075 0 0 1 40.00123258-45.82665482 19.41807408 19.41807408 0 0 1 33.01072593 10.09739852 293.60128 293.60128 0 0 0 32.81654519 67.38071704c24.46677333 36.70016 36.31179852 37.6710637 31.65146074 53.59388444a19.41807408 19.41807408 0 0 1-13.59265186 13.39847112C105.77389037 766.40331852 143.05659259 665.42933334 178.20330667 687.1775763zM807.34890667 414.15945482c-28.73874963 0-10.87412148-38.83614815-72.62359704-110.87720297-5.24288-6.40796445-14.36937482-12.62174815-11.06830222-25.24349629s11.84502518-13.98101333 22.91332741-16.31118222c143.49956741-37.28270222 194.18074075 28.54456889 74.3712237 146.80064a19.41807408 19.41807408 0 0 1-13.59265185 5.63124148z m-30.09801482-119.6153363a335.15595852 335.15595852 0 0 1 37.47688297 64.27382518c33.98162963-38.83614815 36.31179852-58.25422222 33.59326815-62.33201778-6.2137837-12.42756741-54.37060741-5.43706075-71.07015112-1.9418074z" fill="#35214C" /><path d="M178.20330667 687.1775763c13.78683259 8.15559111 46.2150163 3.68943408 61.74947555 0.9709037s-1.74762667 0-30.68055704-65.63309036a230.88090075 230.88090075 0 0 0-15.14609777 19.41807406 19.41807408 19.41807408 0 0 1-31.65146074-23.30168888 403.89594075 403.89594075 0 0 1 40.00123258-45.82665482 19.41807408 19.41807408 0 0 1 33.01072593 10.09739852 293.60128 293.60128 0 0 0 32.81654519 67.38071704c24.46677333 36.70016 36.31179852 37.6710637 31.65146074 53.59388444a19.41807408 19.41807408 0 0 1-13.59265186 13.39847112C105.77389037 766.40331852 143.05659259 665.42933334 178.20330667 687.1775763zM807.34890667 414.15945482c-28.73874963 0-10.87412148-38.83614815-72.62359704-110.87720297-5.24288-6.40796445-14.36937482-12.62174815-11.06830222-25.24349629s11.84502518-13.98101333 22.91332741-16.31118222c143.49956741-37.28270222 194.18074075 28.54456889 74.3712237 146.80064a19.41807408 19.41807408 0 0 1-13.59265185 5.63124148z m-30.09801482-119.6153363a335.15595852 335.15595852 0 0 1 37.47688297 64.27382518c33.98162963-38.83614815 36.31179852-58.25422222 33.59326815-62.33201778-6.2137837-12.42756741-54.37060741-5.43706075-71.07015112-1.9418074z" fill="#35214C" /><path d="M220.72888889 568.33896297a19.41807408 19.41807408 0 0 1-13.78683259-33.20490667l155.34459259-155.3445926a19.41807408 19.41807408 0 0 1 27.57366519 27.57366519C222.08815408 574.94110815 232.18555259 568.33896297 220.72888889 568.33896297zM531.41807408 820.77392592a19.41807408 19.41807408 0 0 1-13.7868326-33.20490666l87.38133334-87.38133334a19.41807408 19.41807408 0 0 1 27.57366518 27.5736652C542.87473778 817.27867259 542.87473778 820.77392592 531.41807408 820.77392592zM434.3277037 548.92088889a19.41807408 19.41807408 0 0 1-13.78683259-33.20490667l271.85303704-271.85303703a19.41807408 19.41807408 0 0 1 27.57366518 27.57366518C422.87104 568.33896297 445.78436741 548.92088889 434.3277037 548.92088889zM482.87288889 306.19496297a19.41807408 19.41807408 0 0 1-13.78683259-33.20490667l48.54518518-48.54518518a19.41807408 19.41807408 0 0 1 27.57366519 27.57366518c-52.62298075 52.4288-51.65207703 54.17642667-62.33201778 54.17642667z" fill="#FD8F07" /><path d="M281.50746075 717.85813334a19.41807408 19.41807408 0 0 1-14.36937483-6.2137837 330.10725925 330.10725925 0 0 1 163.69436445-540.98754372 19.41807408 19.41807408 0 0 1 9.32067555 37.67106372 291.27111111 291.27111111 0 0 0-152.04352 468.16976592c155.34459259-45.43829333 381.37097482-176.31611259 496.90851556-287.19331556A291.27111111 291.27111111 0 0 0 512 199.39555556a19.41807408 19.41807408 0 0 1 0-38.83614814 330.10725925 330.10725925 0 0 1 313.99025778 228.55073184 19.41807408 19.41807408 0 0 1-4.85451853 19.41807408C659.38318222 570.08658964 337.23733333 717.85813334 281.50746075 717.85813334z" fill="#35214C" /><path d="M152.95981037 315.904a19.41807408 19.41807408 0 0 1 26.02021926-8.93231408 99.42053925 99.42053925 0 0 0 53.3997037 8.93231408 330.10725925 330.10725925 0 0 1 85.43952592-92.04167111 97.09037037 97.09037037 0 1 0-184.4717037 36.70016 19.41807408 19.41807408 0 0 1-9.70903703 26.02021926c-27.57366518 13.39847111-38.83614815-37.28270222-38.83614815-67.76907851a135.92651852 135.92651852 0 0 1 135.92651852-135.92651852c125.63493925 0 155.34459259 147.38318222 126.41166222 167.57797925a294.76636445 294.76636445 0 0 0-86.21624889 92.4300326c-13.78683259 23.30168889-126.8000237 11.84502518-107.96449185-26.99112297zM754.72592592 976.11851852a87.38133333 87.38133333 0 0 1-85.43952592-105.63432296 19.41807408 19.41807408 0 0 1 38.83614815 8.15559111 48.54518518 48.54518518 0 1 0 36.89434074-37.28270222 19.41807408 19.41807408 0 0 1-8.15559111-38.83614815A87.38133333 87.38133333 0 1 1 754.72592592 976.11851852zM340.53840592 772.61710222a19.41807408 19.41807408 0 0 1-9.12649481-19.41807407c3.88361482-33.98162963 91.26494815-14.56355555 334.96177778-176.31611259a19.41807408 19.41807408 0 0 1 21.35988148 32.23400296 1501.59966815 1501.59966815 0 0 1-288.16421926 149.51917037 291.27111111 291.27111111 0 0 0 401.37159111-231.07508147c-15.53445925 12.62174815-32.03982222 25.2434963-49.1277274 38.83614814a19.41807408 19.41807408 0 0 1-22.91332741-31.06891852c86.41042963-63.8854637 82.9151763-75.73048889 100.77980444-68.54580148 12.42756741 4.46615703 12.42756741 14.95191703 12.4275674 23.88423111a330.10725925 330.10725925 0 0 1-501.56885333 281.95043555z" fill="#35214C" /></svg>